<svg width="160" height="163" viewBox="0 0 160 163" fill="none" xmlns="http://www.w3.org/2000/svg">
<path d="M68.9998 1.34533C47.8665 4.32691 29.0665 15.5078 16.3998 32.6519C-13.2668 72.8355 -1.00015 129.485 42.6665 153.338C65.5332 165.874 94.4665 165.874 117.333 153.338C152.467 134.161 168.333 92.8934 155.267 54.6749C147.733 32.3809 129.2 13.2717 107.667 5.47889C94.5332 0.735466 82.3332 -0.552034 68.9998 1.34533ZM92.7332 8.12165C102.4 9.81573 112.333 13.8815 121 19.6414C126.133 23.0295 137.667 34.7526 141 39.9703C157.533 65.7203 157.533 97.569 141 123.319C137.667 128.537 126.133 140.26 121 143.648C95.6665 160.453 64.3332 160.453 38.9999 143.648C33.8665 140.26 22.3332 128.537 18.9998 123.319C2.46651 97.569 2.46651 65.7203 18.9998 39.9703C22.3332 34.7526 33.8665 23.0295 38.9999 19.6414C47.3999 14.017 57.6665 9.81573 66.8665 8.12165C73.3999 6.90191 85.9998 6.90191 92.7332 8.12165Z" fill="#152354"/>
<path d="M70.3996 13.2039C42.7996 17.6763 21.333 37.2598 14.1996 64.6362C12.6663 70.2605 12.4663 72.4967 12.4663 81.6447C12.4663 90.7928 12.6663 93.0289 14.1996 98.6533C20.6663 123.455 38.8663 141.954 63.2663 148.527C68.7996 150.086 70.9996 150.289 79.9996 150.289C88.9996 150.289 91.1996 150.086 96.733 148.527C121.133 141.954 139.333 123.455 145.8 98.6533C147.333 93.0289 147.533 90.7928 147.533 81.6447C147.533 72.4967 147.333 70.2605 145.8 64.6362C139.333 39.8348 120.866 21.0644 96.733 14.8302C89.533 12.9329 76.9996 12.1875 70.3996 13.2039ZM91.1996 23.775C92.733 24.7914 93.2663 28.3151 91.9996 29.1283C91.533 29.3993 91.533 29.9414 91.9996 30.8223C92.933 32.5164 91.7996 35.2947 89.9996 35.9046C87.9996 36.5145 81.9996 35.6335 81.9996 34.6848C81.9996 33.6006 83.2663 25.5368 83.733 23.4362C84.0663 22.0131 84.2663 21.8776 86.8663 22.2842C88.3996 22.5552 90.333 23.2329 91.1996 23.775ZM66.733 28.1796C66.133 31.2967 66.133 32.7875 66.6663 34.6171C67.5996 37.3276 67.533 37.5309 65.3996 37.7342C64.133 37.8697 63.6663 37.4631 63.0663 35.7013C62.6663 34.4816 60.6663 31.9743 58.6663 30.2125L55.0663 26.9598L57.133 26.2822C58.9996 25.6046 59.3996 25.7401 60.733 27.1631C62.5996 29.196 63.333 29.196 63.333 27.2309C63.333 25.4691 64.533 23.7072 65.9996 23.2329C67.4663 22.7585 67.5996 23.7072 66.733 28.1796ZM103.866 27.0954C104.066 27.2987 99.3996 39.0217 98.933 39.5638C98.7996 39.6993 97.933 39.496 97.0663 39.0895L95.3996 38.3441L97.8663 32.1776C100.2 26.4177 100.4 26.0789 102 26.4855C102.933 26.6888 103.733 26.9598 103.866 27.0954ZM113 34.6171C111.866 36.4467 111.933 36.5145 114.333 35.5658C115.666 35.0914 116.466 35.1592 117.666 35.9723C119.8 37.3954 119.4 37.9375 115.733 38.8862C112.6 39.6993 112 40.5802 112 45.1881C112 47.9664 111.133 48.4408 109.266 46.6789C108.4 45.9335 108.2 44.9848 108.466 43.1552L108.8 40.648L107.466 42.2743C106.4 43.6296 106 43.7651 104.8 43.0875C104 42.6131 103.333 42.1388 103.333 41.8677C103.333 41.6645 105.066 39.1572 107.133 36.2434C110.866 31.1612 111.066 31.0256 112.533 32.0421C113.933 32.9908 114 33.1263 113 34.6171ZM52.733 32.923C53.733 33.9395 54.0663 34.9559 53.8663 36.3789C53.5996 38.1408 53.8663 38.4796 55.933 39.3605L58.333 40.377L56.733 41.6645C55.533 42.5454 54.6663 42.7487 53.533 42.2743C51.9996 41.6645 51.533 42.2066 52.5996 43.3585C52.9996 43.7651 52.6663 44.5105 51.6663 45.1881C50.133 46.3401 50.133 46.3401 46.8663 41.4612C45.0663 38.7506 43.333 36.2434 43.0663 35.7691C42.4663 34.6848 47.1996 31.5 49.4663 31.5C50.533 31.5 51.933 32.1098 52.733 32.923ZM42.333 45.3914L46.9996 49.7283L45.6663 51.1513L44.333 52.5066L39.333 47.8309C34.933 43.7651 34.4663 43.0875 35.2663 42.071C35.733 41.4612 36.533 40.9868 36.933 40.9868C37.333 41.0546 39.733 43.0197 42.333 45.3914ZM89.5996 43.4263C95.9996 45.1204 102.466 48.9151 107.333 53.8618C122.533 69.3118 122.533 93.9776 107.333 109.428C92.133 124.878 67.8663 124.878 52.6663 109.428C37.4663 93.9776 37.4663 69.3118 52.6663 53.8618C57.3996 49.0506 63.3996 45.4592 69.6663 43.6296C74.7996 42.071 84.1996 42.0033 89.5996 43.4263ZM127 46.2046C129.2 49.1862 129.333 49.4572 128.266 50.2704C127.266 51.0158 126.866 50.948 125.533 49.6605C124.466 48.6441 123.733 48.4408 123.266 48.9151C122.8 49.3895 122.933 49.8638 123.666 50.4737C125 51.6256 124.933 52.9131 123.533 53.523C122.733 53.7941 121.933 53.4552 121.2 52.5066C119.466 50.3381 118.4 51.4901 119.8 53.9296C120.866 55.6914 120.866 56.0302 120 56.5724C118.466 57.521 118.4 57.521 116.066 54.1329C113.933 51.2191 113.933 51.0158 115.066 50.1349C115.8 49.6605 118.133 47.8309 120.333 46.1368C122.533 44.4427 124.4 43.0197 124.466 43.0197C124.533 43.0197 125.666 44.4427 127 46.2046ZM36.1996 54.2684C39.3996 54.4717 41.9996 54.8783 41.9996 55.1493C41.9996 56.098 39.8663 58.6052 39.0663 58.6052C37.933 58.6052 36.6663 61.5191 37.0663 63.0776C37.2663 63.823 36.9996 64.9072 36.533 65.5171C35.733 66.5335 35.1996 66.127 31.333 61.6546C28.9996 58.8763 26.933 56.3013 26.7996 55.8947C26.3996 54.7427 28.0663 53.1164 29.2663 53.4552C29.8663 53.6585 32.933 53.9974 36.1996 54.2684ZM134.4 60.2316C135.466 63.6875 135.466 64.0263 134.4 65.6526C133.133 67.6855 130.6 68.4987 128.866 67.4822C127.866 66.9401 127.333 67.1434 125.866 68.973L124.066 71.1414L123.4 69.2441C122.8 67.7533 122.933 67.0079 123.733 65.7204C124.666 64.2296 124.666 64.1618 123.466 64.5006C122.533 64.7039 121.866 64.3651 121.333 63.3487C120.933 62.5355 120.666 61.7224 120.8 61.5868C121 61.4513 123.8 60.2993 127.066 59.0118C130.333 57.7243 133.066 56.7079 133.133 56.6401C133.2 56.5724 133.8 58.1987 134.4 60.2316ZM35.1996 70.4638C35.333 70.5993 35.333 71.4802 35.133 72.3612C34.733 73.7164 34.3996 73.852 32.4663 73.6487C30.7996 73.4454 30.0663 73.7164 29.733 74.5296C29.133 76.1559 29.7996 76.9013 32.0663 76.9013C33.7996 76.9013 33.9996 77.1046 33.9996 78.9342C33.9996 80.1539 33.6663 80.9671 33.1996 80.8993C32.733 80.8993 29.7996 80.4928 26.6663 80.0862C21.133 79.273 20.9996 79.2053 20.7996 77.3079C20.5996 75.4783 20.6663 75.4105 23.2663 75.6816C25.733 75.8849 25.9996 75.7493 25.9996 74.3941C25.9996 73.2421 25.533 72.8355 23.5996 72.4289C21.933 72.0901 21.333 71.6835 21.5996 71.0059C21.7996 70.4638 21.9996 69.6506 21.9996 69.1763C21.9996 68.4987 23.3996 68.5664 28.4663 69.2441C31.9996 69.7184 35.0663 70.2605 35.1996 70.4638ZM137.333 74.1908C138.066 74.9362 138.666 76.427 138.666 77.5112C138.666 79.0697 138.333 79.5441 137 79.7474C135.733 80.0184 135.333 79.8151 135.333 78.8664C135.333 77.1724 134.6 77.2401 132.266 79.273C130.333 80.9671 127.733 81.4414 126.2 80.425C125 79.6796 124.066 76.5625 124.466 74.9362C124.933 73.1066 127.333 72.971 127.333 74.8006C127.333 77.0368 128.6 77.1046 131.133 74.9362C134.066 72.4967 135.466 72.2934 137.333 74.1908ZM34.4663 100.076C35.4663 101.703 35.4663 101.974 34.4663 103.6C33.0663 105.701 30.2663 105.972 28.933 104.142C27.733 102.584 27.7996 101.228 29.0663 99.3987C30.4663 97.3658 33.0663 97.6368 34.4663 100.076ZM132.333 100.009C133.333 101.906 133.333 102.245 132.333 103.736C130.866 106.039 128 105.904 126.533 103.532C125.533 101.77 125.533 101.567 126.8 99.8053C128.6 97.1625 131 97.298 132.333 100.009ZM49.6663 117.762C50.8663 118.711 50.8663 120.473 49.5996 123.997C49.2663 125.013 49.733 124.742 51.533 123.048C55.1996 119.524 56.8663 120.88 55.333 126.301L54.6663 128.672L56.9996 126.368C59.1996 124.2 59.3996 124.132 61.0663 125.081L62.7996 126.03L60.2663 128.266C52.933 134.771 52.133 135.313 50.733 134.568C49.5996 133.958 49.533 133.484 50.0663 131.654C50.7996 128.876 50.333 128.469 48.3996 130.366C47.0663 131.654 46.533 131.789 45.333 131.112C44.533 130.705 43.9996 129.96 44.1996 129.553C44.333 129.079 45.133 126.097 45.9996 122.777C46.8663 119.524 47.733 116.882 47.9996 116.882C48.1996 116.882 48.933 117.288 49.6663 117.762ZM116.266 119.66C119.133 123.116 118.266 127.859 114.066 130.909L112.066 132.467L108.466 127.859C103.533 121.489 103.6 121.964 106.733 119.592C110.6 116.746 113.933 116.814 116.266 119.66ZM99.0663 129.757C100.466 133.484 101.133 134.432 101.933 134.093C104.6 133.009 105.133 133.077 105.533 134.5C105.866 135.72 105.4 136.194 102.8 137.278C101.133 138.024 99.3996 138.498 98.9996 138.295C98.333 138.091 93.9996 127.724 93.9996 126.368C93.9996 125.894 94.9996 125.42 96.7996 125.081C96.9996 125.081 98.0663 127.182 99.0663 129.757ZM72.6663 128.062C75.133 129.35 75.9996 130.976 75.9996 134.5C75.9996 136.804 75.5996 137.753 73.933 139.311C71.0663 142.022 67.533 142.022 64.533 139.311C62.6663 137.617 62.333 136.872 62.333 134.161C62.333 131.451 62.6663 130.705 64.533 129.011C66.9996 126.775 69.6663 126.504 72.6663 128.062ZM89.533 129.621C90.933 130.909 90.9996 134.703 89.6663 135.855C88.733 136.668 88.7996 136.939 90.333 138.566C92.4663 140.87 92.4663 141.276 89.933 141.276C88.5996 141.276 87.4663 140.734 86.6663 139.786L85.4663 138.227L85.7996 140.124C86.133 141.818 85.9996 141.954 84.133 141.954H82.1996L81.3996 135.991C80.9996 132.67 80.6663 129.689 80.6663 129.214C80.6663 128.469 84.6663 127.859 86.9996 128.334C87.733 128.469 88.8663 129.079 89.533 129.621Z" fill="#2743A6"/>
<path d="M87.0667 26.4854C86.8 27.0953 87.1334 27.4341 88 27.4341C89.5334 27.4341 89.8 26.4176 88.4 25.8755C87.8667 25.6722 87.2667 25.9433 87.0667 26.4854Z" fill="#2743A6"/>
<path d="M86.3333 31.5677C85.6667 32.5841 86.4 33.1262 87.6667 32.5841C88.2667 32.3808 88.5333 31.9065 88.3333 31.4999C87.8 30.619 86.8667 30.619 86.3333 31.5677Z" fill="#2743A6"/>
<path d="M47.8001 35.2948C47.3334 35.7691 48.7334 38.2764 49.5334 38.2764C50.3334 38.2764 49.8001 35.3626 48.9334 35.0915C48.6001 34.956 48.0667 35.0237 47.8001 35.2948Z" fill="#2743A6"/>
<path d="M73.9997 44.7815C63.0663 46.9499 52.8663 54.4038 47.7997 63.8229C45.4663 68.2953 43.333 76.6979 43.333 81.6446C43.333 86.5913 45.4663 94.994 47.7997 99.4663C51.933 107.191 59.9997 114.035 68.533 117.017C74.8663 119.185 85.133 119.185 91.3997 117.017C102.466 113.154 111 104.481 114.8 93.2999C116.933 86.8624 116.933 76.4269 114.8 69.9894C111 58.8762 102.6 50.2703 91.5997 46.34C87.733 44.9848 77.5997 44.1038 73.9997 44.7815ZM89.9997 49.1183C103.933 53.2519 113.4 66.3979 113.4 81.6446C113.4 100.889 98.933 115.594 79.9997 115.594C61.1997 115.594 46.6663 100.957 46.5997 81.8479C46.533 70.4637 51.2663 60.7736 60.0663 54.2005C68.7997 47.6953 79.133 45.9334 89.9997 49.1183Z" fill="#2743A6"/>
<path d="M78.6665 52.8453C78.6665 53.3874 77.5998 54.3361 76.2665 54.8782C73.9998 55.8269 73.8665 56.0302 74.2665 58.0631C75.6665 65.0427 76.0665 67.5499 76.3998 71.6157C76.6665 74.1907 76.5998 76.2236 76.3998 76.2236C74.8665 76.2236 65.8665 68.7019 64.3998 66.2624C62.4665 63.0098 60.1998 62.0611 57.4665 63.4163L55.6665 64.2973L57.3332 64.5683C58.2665 64.7038 59.6665 65.4492 60.4665 66.1946C61.9332 67.5499 61.9332 67.6854 60.8665 69.515C59.9998 70.9381 59.1998 71.4802 57.7998 71.4802C56.0665 71.4802 55.9332 71.6157 56.7332 72.5644C57.3998 73.3775 58.3332 73.5131 61.2665 73.1742L64.9998 72.7677L70.6665 76.8335C73.7998 79.1374 76.3332 81.3058 76.3332 81.7124C76.3332 82.119 73.3332 84.3552 69.7332 86.7269C66.0665 89.0308 61.5998 92.3512 59.7332 94.0453C56.5998 96.8236 56.3998 97.2302 57.3998 98.1788C58.3332 99.1953 58.7332 99.0598 62.4665 96.6203C64.7332 95.1295 68.7332 91.8769 71.4665 89.3696C76.9332 84.2874 77.5332 84.4907 75.5998 90.9282C74.9998 93.0966 74.3332 97.84 74.1998 101.431L73.9332 108.072H79.3332H84.7332L84.4665 101.093C84.3332 97.2302 83.7332 92.419 83.0665 90.2506C82.3998 88.0821 82.0665 86.117 82.2665 85.9137C82.3998 85.7104 84.9998 87.269 87.9998 89.4374C91.5998 92.0124 93.7998 94.1131 94.6665 95.8749C95.3332 97.2302 96.3998 98.5854 96.9998 98.8565C98.9332 99.6019 101.8 99.2631 102.667 98.2466C103.4 97.3657 103.2 97.2302 101.467 97.2302C100.133 97.2302 99.1332 96.7558 98.4665 95.6716C97.5998 94.2486 97.5998 93.9098 98.5332 92.2834C99.3332 90.9282 100.2 90.4538 101.667 90.4538L103.667 90.3861L101.933 89.4374C100.733 88.7598 99.5332 88.692 97.6665 89.0986C94.6665 89.7762 94.2665 89.6407 87.1332 84.4229L81.9332 80.6282L83.6665 79.0696C84.7998 78.121 86.2665 77.5788 87.9332 77.5788C90.0665 77.5788 91.1998 76.9012 95.6665 72.971C98.5332 70.4637 101.667 67.7532 102.6 66.94C103.533 66.1269 104.067 65.4492 103.8 65.3815C103.467 65.3815 101.067 67.1433 98.4665 69.3117C91.8665 74.7328 90.7998 75.0716 95.9998 70.1249L100.333 65.9236L95.8665 69.4473C89.8665 74.1229 89.9998 72.6999 95.9998 67.821C98.5998 65.7203 100.667 63.8229 100.667 63.6196C100.667 63.4163 98.6665 64.8394 96.1998 66.8045C89.8665 71.819 89.9998 71.6835 89.9998 71.0736C89.9998 70.7348 92.2665 68.6341 95.0665 66.4657C101.2 61.519 102.333 60.0282 96.9332 63.9585C88.7332 69.9216 85.3332 72.8354 85.3332 74.0552C85.3332 74.7328 84.5332 76.0203 83.5998 76.969L81.8665 78.5953L82.2665 73.8519C82.7998 67.8887 83.9332 60.7736 84.6665 58.8085C85.3998 57.0466 84.3332 55.5558 81.8665 54.6071C80.5998 54.1328 80.1332 53.5907 80.3998 52.8453C80.6665 52.1677 80.3998 51.8288 79.7332 51.8288C79.1332 51.8288 78.6665 52.3032 78.6665 52.8453Z" fill="#2743A6"/>
<path d="M32.7332 58.3341C33.5998 59.4183 34.6665 59.6216 34.6665 58.6729C34.6665 58.3341 34.0665 57.9275 33.2665 57.7242C32.1998 57.4532 32.0665 57.5209 32.7332 58.3341Z" fill="#2743A6"/>
<path d="M129.133 62.3999C128.866 62.671 128.866 63.1453 129.066 63.4163C129.6 64.365 131.133 64.094 131.6 63.0098C131.933 61.9933 130 61.519 129.133 62.3999Z" fill="#2743A6"/>
<path d="M30.6663 100.889C29.7997 102.041 30.2663 103.329 31.6663 103.329C32.933 103.329 33.3997 101.499 32.3997 100.686C31.733 100.144 31.2663 100.212 30.6663 100.889Z" fill="#2743A6"/>
<path d="M128.733 100.618C127.6 101.296 128.267 103.329 129.667 103.329C130.2 103.329 130.667 102.719 130.667 102.041C130.667 100.415 129.867 99.8729 128.733 100.618Z" fill="#2743A6"/>
<path d="M109.666 121.625C109.2 122.438 110.133 124.335 111.866 125.894C113.2 127.114 113.266 127.114 114 125.758C114.466 124.81 114.533 123.929 114.066 123.048C113.066 121.151 110.466 120.337 109.666 121.625Z" fill="#2743A6"/>
<path d="M66.533 132.874C65.5997 134.974 66.4663 136.736 68.5997 137.075C70.4663 137.346 71.9997 136.126 71.9997 134.229C71.9997 130.841 67.8663 129.824 66.533 132.874Z" fill="#2743A6"/>
<path d="M84.7997 132.941C85.133 134.635 86.6664 134.839 86.6664 133.212C86.6664 132.399 86.2664 131.789 85.5997 131.789C84.9997 131.789 84.6664 132.264 84.7997 132.941Z" fill="#2743A6"/>
</svg>
